<svg width="310" height="310" viewBox="0 0 310 310" fill="none" xmlns="http://www.w3.org/2000/svg">
<path d="M168.749 128.667L175.778 131.01C186.563 134.773 196.408 139.1 205.313 143.991C214.217 148.882 221.867 154.713 228.263 161.486C234.659 168.258 239.55 175.971 242.937 184.624C246.323 193.277 248.016 203.248 248.016 214.535C248.016 228.582 245.194 240.684 239.551 250.842C233.907 261.001 226.696 269.341 217.917 275.862C209.138 282.383 199.231 287.274 188.194 290.535C177.158 293.796 166.373 295.426 155.838 295.426C144.3 295.426 133.264 293.796 122.729 290.535C112.194 287.274 102.537 282.383 93.758 275.862C93.758 275.862 80.141 265.318 72.336 251.16C64.532 237.003 62 215.134 62 215.134L111.179 201.167C110.107 203.634 110.085 206.41 109.975 209.047C109.975 227.255 124.359 249.535 151.839 249.535C179.32 249.535 193.782 227.255 193.782 209.047C193.782 180.703 156.49 185.914 156.824 153.337C156.539 143.266 161.006 134.832 168.749 128.667Z" fill="#7B34BC"/>
<path d="M152.451 14C165.996 14 177.722 15.8187 187.63 19.456C197.537 23.0927 205.94 27.733 212.838 33.377C219.735 39.0203 225.316 45.228 229.58 52C233.844 58.7727 236.979 65.1687 238.986 71.188L192.868 90.273C189.141 69.803 171.766 57.645 151.839 57.138C124.359 57.138 109.975 79.418 109.975 97.626C109.975 125.97 147.267 120.759 146.933 153.336C146.995 157.712 146.288 162.051 144.619 166.112C144.148 167.257 143.457 168.299 142.877 169.393L128.372 164.119C121.098 161.611 113.761 158.225 106.362 153.961C98.9627 149.697 92.253 144.555 86.233 138.535C80.2137 132.515 75.26 125.429 71.372 117.278C67.484 109.126 65.54 99.908 65.54 89.624C65.54 79.0893 67.6094 69.2443 71.748 60.089C75.8867 50.9343 81.7814 42.908 89.432 36.01C97.082 29.1126 106.237 23.72 116.897 19.832C127.557 15.944 139.408 14 152.451 14Z" fill="#7B34BC"/>
<path d="M190.02 97.626C190.02 107.23 186.328 111.778 174.716 119.661C174.592 119.745 173.508 120.48 173.187 120.698C166.321 125.364 162.771 128.271 159.515 132.528C155.989 136.957 154.246 142.225 153.486 147.751H150.186C149.769 142.133 147.442 137.068 144.241 132.528C140.986 128.271 137.436 125.364 130.57 120.698C130.249 120.48 129.165 119.745 129.041 119.661C117.429 111.778 113.737 107.23 113.737 97.626H190.02Z" fill="#F38924"/>
<path d="M121.094 230.71C127.917 240.992 140.073 245.204 151.839 245.773C163.554 245.503 175.883 240.798 182.632 230.71C182.632 230.71 157.853 216.265 151.878 216.265C145.904 216.265 121.094 230.71 121.094 230.71Z" fill="#F38924"/>
</svg>
