<svg width="120" height="72" viewBox="0 0 120 72" fill="none" xmlns="http://www.w3.org/2000/svg">
<mask id="mask0_3_7" style="mask-type:luminance" maskUnits="userSpaceOnUse" x="0" y="0" width="120" height="72">
<path d="M0.272705 0H119.727V71.6727H0.272705V0Z" fill="white"/>
</mask>
<g mask="url(#mask0_3_7)">
<path fill-rule="evenodd" clip-rule="evenodd" d="M60 0C44.0727 0 34.1182 7.96364 30.1363 23.8909C36.1091 15.9273 43.0773 12.9409 51.0409 14.9318C55.5846 16.0666 58.832 19.3649 62.4267 23.0127C68.2822 28.9567 75.0601 35.8364 89.8636 35.8364C105.791 35.8364 115.745 27.8727 119.727 11.9455C113.755 19.9091 106.786 22.8955 98.8227 20.9045C94.279 19.7697 91.0316 16.4715 87.4369 12.8237C81.5814 6.8797 74.8035 0 60 0ZM30.1363 35.8364C14.2091 35.8364 4.25452 43.8 0.272705 59.7273C6.24543 51.7636 13.2136 48.7773 21.1773 50.7682C25.7209 51.9052 28.9683 55.2013 32.563 58.8491C38.4185 64.793 45.1965 71.6727 60 71.6727C75.9273 71.6727 85.8818 63.7091 89.8636 47.7818C83.8909 55.7455 76.9227 58.7318 68.9591 56.7409C64.4154 55.6061 61.168 52.3078 57.5733 48.66C51.7178 42.7161 44.9399 35.8364 30.1363 35.8364Z" fill="#38BDF8"/>
</g>
</svg>
