<svg width="133" height="124" viewBox="0 0 133 124" fill="none" xmlns="http://www.w3.org/2000/svg">
<path d="M128.413 0C131.703 0 133.923 3.36 132.623 6.38L86.2529 117.31C84.4929 121.37 80.483 124 76.053 124H44.363C41.073 124 38.773 120.75 40.083 117.73L43.7129 109.02L51.633 62.77L74.6429 34.8L86.3629 6.69C88.1129 2.63 91.3929 0 95.8229 0H128.413Z" fill="#4285F4"/>
<path d="M74.8028 34.4101C66.7428 26.5801 55.7028 21.8101 43.5628 21.9401C19.2428 22.2101 -0.267231 42.0901 0.00276893 66.3401C0.262769 90.2101 19.5928 109.41 43.4028 109.75C43.5128 109.45 64.7028 76.1901 64.7028 76.1901C64.7028 76.1901 74.8028 34.4301 74.8028 34.4101Z" fill="#FBBC04"/>
<path d="M74.8029 34.4099C74.8029 34.4099 43.3729 109.76 43.4029 109.76C43.7829 109.77 44.1629 109.77 44.5429 109.76C68.8729 109.49 88.3729 89.6199 88.1029 65.3599C87.9729 53.2199 82.8929 42.2799 74.8029 34.4099Z" fill="#EA4335"/>
</svg>
