<svg xmlns:xlink="http://www.w3.org/1999/xlink" xmlns="http://www.w3.org/2000/svg" width="885" height="885" viewBox="0 0 885 885" fill="none">
<circle cx="442.5" cy="442.5" r="442.5" fill="white"/>
<path d="M416.803 43.2153C415.082 43.3717 409.608 43.919 404.681 44.3099C291.055 54.5528 184.623 115.854 117.213 210.072C79.6764 262.46 55.6686 321.884 46.5973 384.827C43.391 406.798 43 413.288 43 443.078C43 472.869 43.391 479.358 46.5973 501.33C68.3372 651.533 175.239 777.731 320.224 824.489C346.187 832.855 373.557 838.563 404.681 842.003C416.803 843.332 469.197 843.332 481.319 842.003C535.043 836.061 580.556 822.768 625.444 799.859C632.326 796.34 633.655 795.402 632.717 794.62C632.091 794.151 602.765 754.821 567.575 707.282L503.606 620.882L423.45 502.268C379.344 437.058 343.059 383.732 342.746 383.732C342.433 383.654 342.12 436.354 341.964 500.704C341.729 613.376 341.651 617.911 340.243 620.569C338.21 624.401 336.646 625.964 333.362 627.685C330.859 628.936 328.67 629.17 316.861 629.17H303.332L299.735 626.903C297.389 625.417 295.669 623.462 294.496 621.195L292.853 617.676L293.01 460.906L293.244 304.057L295.669 301.007C296.92 299.365 299.579 297.254 301.456 296.238C304.662 294.674 305.913 294.518 319.442 294.518C335.395 294.518 338.054 295.143 342.198 299.678C343.371 300.929 386.773 366.296 438.699 445.033C490.625 523.77 561.631 631.281 596.509 684.06L659.852 779.999L663.059 777.887C691.446 759.435 721.475 733.163 745.248 705.796C795.845 647.701 828.455 576.861 839.403 501.33C842.609 479.358 843 472.869 843 443.078C843 413.288 842.609 406.798 839.403 384.827C817.663 234.624 710.761 108.426 565.776 61.6681C540.204 53.38 512.99 47.6721 482.492 44.2318C474.984 43.4499 423.293 42.5898 416.803 43.2153ZM580.556 285.135C584.31 287.011 587.36 290.608 588.455 294.361C589.08 296.394 589.237 339.868 589.08 437.84L588.846 578.425L564.056 540.425L539.188 502.424V400.23C539.188 334.16 539.5 297.02 539.97 295.221C541.221 290.843 543.958 287.402 547.712 285.369C550.918 283.727 552.091 283.571 564.369 283.571C575.942 283.571 577.976 283.727 580.556 285.135Z" fill="black"/>
</svg>