<svg width="220" height="220" viewBox="0 0 220 220" fill="none" xmlns="http://www.w3.org/2000/svg">
<rect width="220" height="220" rx="50" fill="#FBBF24"/>
<path fill-rule="evenodd" clip-rule="evenodd" d="M78.7848 24.4216C82.4954 23.107 86.5982 24.9693 87.9487 28.5812L96.2884 50.8851C105.145 47.8317 114.588 48.0391 123.763 50.6646L131.277 30.5696C132.627 26.9578 136.73 25.0955 140.441 26.4101C144.151 27.7247 146.065 31.7184 144.714 35.3303L136.929 56.151C137.529 56.4811 138.126 56.8206 138.72 57.1695C153.384 65.7892 166.705 80.4347 175.631 98.8804C184.556 117.326 187.673 136.65 185.161 153.145C182.658 169.581 174.346 184.055 159.621 190.807C144.896 197.558 128.138 194.579 113.526 185.99C112.465 185.367 111.411 184.712 110.366 184.026C109.081 184.889 107.783 185.707 106.474 186.476C91.8618 195.065 75.104 198.044 60.3792 191.292C45.6543 184.541 37.3417 170.067 34.8387 153.631C32.3268 137.136 35.4438 117.812 44.3695 99.3662C53.2952 80.9205 66.6156 66.275 81.2804 57.6553C81.9151 57.2822 82.5538 56.9198 83.1963 56.5682L74.5116 33.3418C73.1611 29.7299 75.0743 25.7362 78.7848 24.4216ZM67.2306 89.0939C63.5428 93.9283 60.182 99.3534 57.3057 105.297C49.4135 121.607 46.9395 138.167 48.9836 151.59C51.0367 165.072 57.4271 174.553 66.4724 178.7C75.4236 182.804 86.8557 181.631 98.7084 174.779C90.049 166.618 82.4066 156.248 76.6148 144.279C67.6891 125.833 64.5721 106.51 67.084 90.0144C67.1308 89.7069 67.1797 89.4 67.2306 89.0939ZM121.93 174.657C133.554 181.186 144.737 182.245 153.528 178.214C162.573 174.067 168.963 164.586 171.016 151.104C173.061 137.681 170.587 121.122 162.694 104.812C159.76 98.7484 156.322 93.2253 152.547 88.3182C152.682 89.0413 152.805 89.7688 152.916 90.5002C155.428 106.995 152.311 126.319 143.385 144.765C137.736 156.439 130.327 166.591 121.93 174.657ZM81.0156 93.598C80.5462 97.3693 80.424 101.37 80.6679 105.529H139.359C139.575 101.366 139.423 97.3647 138.922 93.598H81.0156ZM134.984 79.6788C131.811 72.963 127.095 68.0959 121.282 65.431C114.754 62.4379 106.907 62.2517 98.5385 65.0282C92.6698 67.7755 87.9322 72.7817 84.7905 79.6788H134.984ZM137.356 119.448H82.7588C83.6981 123.377 84.9434 127.371 86.508 131.379H133.68C135.22 127.369 136.441 123.375 137.356 119.448ZM127.017 145.298C122.21 153.583 116.452 160.649 110.27 166.257C104.005 160.682 98.1573 153.613 93.2667 145.298H127.017Z" fill="black"/>
</svg>
