<svg width="404" height="439" viewBox="0 0 404 439" fill="none" xmlns="http://www.w3.org/2000/svg">
<path d="M274.144 155.723C274.144 161.245 278.621 165.722 284.144 165.722H342.203C387.788 165.722 420.877 121.608 393.04 85.5092C352.935 33.5 290.034 0 219.315 0C98.1907 0 0 98.2735 0 219.5C0 340.726 98.1907 439 219.315 439C288.873 439 350.867 406.591 391.046 356.038C419.596 320.117 386.555 275.473 340.67 275.473H284.144C278.621 275.473 274.144 279.95 274.144 285.473V356.181C274.144 360.325 271.598 364.07 267.665 365.375C252.464 370.419 236.208 373.15 219.315 373.15C202.422 373.15 186.167 370.419 170.965 365.375C167.032 364.07 164.486 360.325 164.486 356.181V285.473C164.486 279.95 160.009 275.473 154.486 275.473H85.7947C82.0586 275.473 78.6041 273.403 77.041 270.01C69.7543 254.19 65.7945 237.195 65.7945 219.5C65.7945 202.683 69.3713 186.497 75.9817 171.352C77.503 167.867 81.0084 165.722 84.8114 165.722H154.486C160.009 165.722 164.486 161.245 164.486 155.722V82.8185C164.486 78.675 167.032 74.9303 170.965 73.6253C186.166 68.5808 202.422 65.85 219.315 65.85C236.208 65.85 252.464 68.5808 267.665 73.6253C271.598 74.9303 274.144 78.675 274.144 82.8185V155.723Z" fill="url(#paint0_linear_1485_183)"/>
<defs>
<linearGradient id="paint0_linear_1485_183" x1="168.828" y1="430.769" x2="297.055" y2="15.4395" gradientUnits="userSpaceOnUse">
<stop stop-color="#E53C3C"/>
<stop offset="1" stop-color="#F46060"/>
</linearGradient>
</defs>
</svg>
