<svg width="621" height="606" viewBox="0 0 621 606" fill="none" xmlns="http://www.w3.org/2000/svg">
<path d="M210.085 554.819L169 94H620.456L579.327 554.746L394.452 606L210.085 554.819Z" fill="#264DE4"/>
<path d="M544.116 525.408L579.264 131.678H394.728V566.824L544.116 525.408Z" fill="#2965F1"/>
<path d="M263.188 302.59L268.253 359.107H394.728V302.59H263.188ZM258.147 244.715H394.728V188.197H253.009L258.147 244.715ZM394.728 449.372L394.48 449.438L331.536 432.442L327.513 387.366H270.777L278.696 476.107L394.468 508.247L394.728 508.174V449.372Z" fill="#EBEBEB"/>
<path d="M394.533 302.59V359.107H464.128L457.568 432.406L394.533 449.419V508.219L510.397 476.107L511.247 466.558L524.527 317.766L525.907 302.59L536.11 188.197H394.533V244.715H474.172L469.028 302.59H394.533Z" fill="white"/>
<path d="M41 460L0 0H451L410 460L225 512" fill="#E34F26"/>
<path d="M226 472L375 431L410 37H226" fill="#EF652A"/>
<path d="M226 208H151L146 150H226V94H225H84L85 109L99 265H226V208ZM226 355H225L162 338L158 293H128H102L109 382L225 414H226V355Z" fill="#EBEBEB"/>
<path d="M225 208V265H295L288 338L225 355V414L341 382L342 372L355 223L357 208H341H225ZM225 94V129V150H362L363 138L366 109L367 94H225Z" fill="white"/>
</svg>
